<?xml version="1.0"?><svg version="1.2" baseProfile="tiny-ps" viewBox="0 0 200 200" xmlns="http://www.w3.org/2000/svg" xmlns:xlink="http://www.w3.org/1999/xlink"><title>jeffamzn</title><g><g fill="#fff9ef" transform="matrix(.1 0 0 -.1 0 200)"><path d="M0 1000V0h2000v2000H0V1000z"/></g><g fill="#ffeed3" transform="matrix(.1 0 0 -.1 0 200)"><path d="M975 1615c-38-8-88-20-110-28-72-26-195-88-225-113-15-13-49-34-74-45l-46-20-12 7-11 7 8-13 8-13-17 6-18 7 6-16 6-16-21 5-21 6 6-15 5-14h-39v-10c0-5-5-10-11-10h-11l5 21 6 22-12-12c-6-6-22-11-35-11h-25l-13 18-13 17-13-14-13-14 13 7 12 7v-15c0-8-5-18-12-22l-12-8-4 12c-5 15-32 16-32 1v-10l-10 6-10 6 5 10 6 9h-29l2-16 1-17-23-2-23-2-6 10-6 10 11-7 12-7v10c0 15-23 14-38-1s-15-4-1 25l11 22-27-30-26-29-7 10c-4 6-19 14-34 17-14 4-34 10-45 13l-18 6 10-9c6-4 11-16 13-27l3-18-10 7-11 6V0h2000v1364l-12-12c-15-15-28-15-28-1 0 5 3 8 8 6 4-3 12 1 19 8l11 12-76-4c-43-2-83-6-90-8l-13-5 7-12 7-13-18 17-18 17-29-17-28-17-20 13-20 12v-21l-11 7-11 7-9-14-9-14v33l-25 4c-13 3-27 3-30-1-4-3-22-6-41-8-20-1-41-7-48-13l-13-10 5 26 5 26-32 63-32 64-32 24c-45 34-94 58-152 74l-50 14-85 3-85 4-70-13zm-450-255-6-9-14 6c-21 7-19 13 6 13h20l-6-10zm1417-2c-6-6-25-12-42-13l-30-1v18l30-4 31-5 5 9c3 4 8 8 12 8 3 0 1-5-6-12zM43 1343c-3-7-6-13-8-13s-5 6-8 13l-5 14h26l-5-14zm1750 2c-3-9-8-14-10-11-3 3-2 9 2 15 9 16 15 13 8-4zm-1333 1c0-3-4-7-9-11l-10-5-6 10-6 10h15c9 0 16-2 16-4zm1270 14c0-5 5-10 10-10 6 0 10 5 10 10 0 6-4 10-10 10-5 0-10-4-10-10z"/></g><g fill="#ffe4b9" transform="matrix(.1 0 0 -.1 0 200)"><path d="M1045 1622c-22-1-71-9-110-18l-70-16-100-48c-55-26-118-62-140-80-22-17-51-34-65-37-14-2-37-13-50-23l-25-18 28-7 28-7-50-34c-28-19-51-37-51-40s13-3 30 1l30 7v-31l-21-12-21-11-27 5c-14 2-34 8-43 12l-18 7v-31l26-20 27-21h-12c-6 0-28 7-48 15l-37 15-7-12-8-13 31-33c18-18 52-42 76-53l43-21-18-20-17-19 14-9c8-6 19-10 23-10h8l-6-22c-4-13-15-35-26-50l-19-27 19-11c11-5 27-10 35-10h16v-38l31 2 32 1 3-10 4-10-34-19-35-19-17-35-16-35-4-55c-2-30-7-59-11-65l-6-10 13 8 13 8-6-16-6-17h9c6 0 10-4 10-10v-9l-17 6-16 6 8-13 8-13-23 16-23 16-18-9-17-10-5 13-5 12-1-13-1-13-9 6c-6 3-27 2-48-3s-44-7-51-5l-12 5 5 9 6 9-15-6-16-6 6-10c4-6-4-3-17 6l-24 15-15-9-14-9-12 10-12 10-6-16-5-15H82l-5 12-5 13-12-15-12-15-5 13-5 13-15-18c-8-10-12-13-9-6l6 12-10 6-10 6V0h2000v603l-7-6-6-7-11 9-11 8-35-15c-19-8-43-16-52-17l-18-2v18l18-3c17-3 22 1 22 17 0 2-19-3-42-11l-43-15-11 16-12 16-6-17-7-17-11 11c-13 13-32 16-25 5l5-8-26-2c-15-1-34 1-42 4s-39 5-69 4l-54-2-7 11-6 10 6 49 6 48 27 32 26 32 11 37c5 20 10 51 10 68v32l15 12 16 13-7 31c-3 17-11 37-16 44l-10 12h-96l-6 23c-3 12-6 68-6 125v103l-17 26-18 27 3 52 4 52-25 39c-71 113-223 169-422 155z"/></g><g fill="#f3b685" transform="matrix(.1 0 0 -.1 0 200)"><path d="M944 1605c-93-20-265-98-306-138-15-15-54-36-113-62l-40-17 29-12 29-12-51-33c-29-18-52-35-52-37s14-1 31 3l31 6-4-19-3-19-28-9-28-10-29 11-30 11-5-9-6-9 26-26 27-27-26 7c-14 3-37 9-51 12l-25 6v-30l37-32c20-18 52-39 71-47l34-14-16-18c-21-23-20-28 4-34l20-5v-19c0-10-9-33-20-51s-20-34-20-37c0-2 15-7 34-10l33-7-1-16-1-17 29 3 29 4 8-14c13-20 11-24-12-25-28-2-59-31-75-69l-13-32-2-54-2-53 16-31c8-16 37-50 62-73l47-44 66 6 66 5 46-40c56-50 127-84 217-103l68-15h163l72 16 72 17 61 46 61 46 29 46 29 47 11 73 11 74 27 32 28 32 10 38c6 21 11 50 11 65s5 30 10 33l10 6v68l-17 16-17 17-42-5-42-4-7 26c-4 14-6 69-6 123l1 96-11 26c-7 14-16 26-20 26h-8l6 53 5 53-20 40c-36 70-100 115-211 148l-55 16-100-1-101-1-61-13zm24-602c-10-2-26-2-35 0l-18 5h70l-17-5zm100 0c-10-2-26-2-35 0l-18 5h70l-17-5zm59 1c-3-3-12-4-19-1l-13 5 19 1c11 1 17-2 13-5zm208-204 19-21-16 6c-9 4-19 13-22 21-7 19-2 18 19-6zm-85-64c0-2-8-10-17-17l-18-14 14 18c13 16 21 21 21 13zm150 0c0-3-4-8-10-11l-10-6v10c0 6 5 11 10 11 6 0 10-2 10-4zm107-58-5-13-1 19c-1 11 2 17 5 13 3-3 4-12 1-19zm-10-60-5-13-1 19c-1 11 2 17 5 13 3-3 4-12 1-19z"/></g><g fill="#3b3531" transform="matrix(.1 0 0 -.1 0 200)"><path d="m925 1596-91-24-90-45c-50-25-97-53-105-63-7-9-43-30-79-47l-65-29 25-10 25-9-27-20c-14-11-37-28-49-38l-23-18 32 5 32 4v-10c0-16-29-42-48-43-30-2-57 3-69 12l-11 10-6-9-6-10 28-27 27-28-35 6c-19 3-43 8-53 12l-17 7v-12c0-19 61-71 107-92l42-19-21-21-22-22 22-6c13-3 23-8 23-13 1-24-14-67-27-78-22-18-17-27 19-31l32-3-2-18-1-19 25 7 25 6 16-13 16-13-7 12-8 12 31 16 30 16 93-3 92-3 3-23 4-23 14-6 14-5 35-74 35-73 37-28 37-28h154l43 30c24 17 54 46 67 65l22 33 6 39 7 38h8c5 0 9-4 9-9 0-4 17-30 37-56 36-47 30-52-14-12l-23 20v-10c0-7 11-25 25-41l25-30-26-31c-14-17-23-31-19-31 15 0 64 42 70 59l5 18 47-23c25-13 56-24 68-24h22l-9-52c-5-29-18-72-29-95l-21-43-44-39-45-39-47-17-47-17-120-5-121-5-55 11c-30 6-82 24-115 40l-59 28-36 40c-20 22-38 46-41 54l-4 13-29-22-28-22h-29c-51 0-116 48-147 107l-11 22v92l14 33 14 33 23 17 23 16h-12c-7 0-24-11-37-24l-23-23-11-39c-24-85-11-147 42-202 55-58 119-78 168-51l20 10 52-44c61-52 111-79 191-102l57-17 142 4 142 4 40 15c23 8 66 34 96 57l56 42 26 48 26 47 12 70 12 70 28 32 27 32 12 58c6 32 17 72 23 90l11 32-12 26-12 25h-99l-8 12-7 13 1 112 2 112-22 33-23 33 10 33 9 32-12 41-12 40-41 41-40 40-42 19c-23 10-69 25-101 34l-59 15h-86l-85-1-90-23zm526-368c20-71 47-203 43-210-2-3-38-9-79-13l-74-7-17-19c-22-25-36-24-60 2l-19 22-175-7c-96-3-224-9-285-12l-110-7-13 68-13 68 8 8c15 14 126 29 214 29h88l78 24c43 13 102 26 130 29l53 6 46 21 47 20h41c22 0 48 5 56 10 24 16 29 12 41-32zm-102-378 12-25-15 19c-9 11-16 24-16 30 0 12 5 7 19-24zm-435-57c9-18 14-33 12-33-6 0-36 55-36 66s5 3 24-33zm491-14 40-41-22 11c-18 9-71 71-61 71 2 0 22-19 43-41zm-439-61 29-33-32 29c-31 28-38 36-30 36 2 0 16-15 33-32zM560 846c0-2 7-6 15-10l15-5v9c0 6-7 10-15 10s-15-2-15-4zm668-239c-28-23-22-27 40-27h57l15 10 14 9-7 7c-3 4-28 9-54 11l-48 4-17-14z"/></g><g fill="#080707" transform="matrix(.1 0 0 -.1 0 200)"><path d="M990 1605c-138-26-260-76-345-141-27-21-66-43-85-50s-36-17-38-23l-4-11h23l-5 8-5 9 52 11c29 6 68 13 87 16l35 5 24-13 24-13-81-5-81-5-55-38-56-38 18-13 17-13-11-18c-6-10-23-22-38-28l-27-9-29 11-30 11 10-19 11-19h14c8 0 15-5 15-10 0-19-25-21-68-6l-42 15v-9c0-15 82-79 117-92 18-7 33-16 33-20s15-9 33-9l32-1-30-7-30-7-3 9-4 8-14-12c-20-16-17-29 6-29h20v-18c0-10-9-35-19-55l-19-38 29-6 29-5v-36l33 7c18 5 43 14 57 21l24 13 93 5 92 5 11-28c6-15 19-34 29-44 10-9 26-36 36-61 22-58 58-106 95-125 42-22 51-18 13 5l-32 19-25 38c-14 21-32 55-40 75l-16 37 9 5 8 6 18-48 18-47 60-58 59-58 41 6c23 4 58 16 79 26l36 18 30 37 30 36 11 44 11 44h10c5 0 14-10 21-21 18-35 90-109 120-125 16-8 42-14 60-14h32l-6-50c-8-66-36-128-81-177l-36-40-62-28-62-28-116-5-115-4-68 16c-38 9-93 28-123 43l-55 27-33 36c-18 21-36 43-38 51l-5 14-19-17c-10-9-31-19-46-23l-27-7-35 12-34 11-41 44-40 43-6 39c-10 55-13 62-14 26-1-43 14-79 51-122l31-36 34-16 34-16 50 9 50 9 46-41 45-42 61-28c34-15 87-33 117-40l56-12 114 4 115 5 53 17 52 17 53 42 52 42 28 56 28 56 6 59 6 59 28 28 29 29 10 36c5 21 10 51 10 68v30l11 11 10 10-3 39-3 39-56 3-57 3-6 22c-3 12-6 73-6 135v112l-19 19-18 18 5 52 5 51-13 30-12 30-40 36c-50 45-104 69-197 89-84 17-140 18-231 0zm243-30c70-18 131-49 163-80l24-24v-22c0-11-7-36-15-54l-16-32-24-11-24-11-58 50c-32 27-82 61-112 76l-53 26-77 4-76 4-165-30c-91-16-167-28-168-26-7 6 103 65 169 90 36 14 95 32 130 40l64 13 90 1 91 1 57-15zm-150-153 48-16 52-47 52-47-65-7-65-7-30 12c-16 6-43 22-60 34-45 35-105 62-150 70-22 4-53 10-70 14l-30 7 80 5c108 7 180 2 238-18zm-260-109 87-42v-21h-67l-24 19c-13 10-44 28-68 41l-44 22-62-4-61-4-30-21-30-22-12 20-13 20 43 20 43 20 75-3 75-3 88-42zm644-124c13-46 24-106 25-134l3-50-71-3-72-3-17-19-18-20h-19c-10 0-26 8-35 18l-18 17-215-7c-118-4-247-9-287-10-39-2-74 0-77 3s-7 39-8 79l-3 74 40 8c22 4 94 9 160 12l120 4 75 25c41 14 98 27 125 30l50 6 48 20 49 21h36c20 0 44 5 52 10s20 8 25 7l10-4 22-84zm-762 61 20-8-15-5c-8-2-34-9-58-14l-42-10-6 8-5 9-42-5-42-5 55 19c60 21 104 24 135 11zm651-397c22-45 77-101 118-119l31-13-26-1h-26l-29 22c-40 31-61 56-84 100-23 42-24 48-10 48 5 0 17-16 26-37zm-22-88 28-26-16-18c-9-10-16-22-16-27 1-11 40 35 40 46 0 5-15 18-32 30l-33 22 29-27zm-104-165-15-10h126l-6 10-6 10h-42c-23 0-49-5-57-10z"/></g></g></svg>